HIERARCHY
ROOT Hips
{
  OFFSET 0.35032 94.9194 1.91514
  CHANNELS 6 Xposition Yposition Zposition Zrotation Xrotation Yrotation
  JOINT Spine
  {
    OFFSET 0 10.1816 0.1315
    CHANNELS 3 Zrotation Xrotation Yrotation
    JOINT Spine1
    {
      OFFSET 0 10.0835 -1.0008
      CHANNELS 3 Zrotation Xrotation Yrotation
      JOINT Spine2
      {
        OFFSET 0 9.1 -1.3734
        CHANNELS 3 Zrotation Xrotation Yrotation
        JOINT Neck
        {
          OFFSET 0 16.6717 -2.5162
          CHANNELS 3 Zrotation Xrotation Yrotation
          JOINT Head
          {
            OFFSET 0 9.6179 1.685
            CHANNELS 3 Zrotation Xrotation Yrotation
            End Site
            {
              OFFSET 0 0 0
            }
          }
        }
        JOINT LeftShoulder
        {
          OFFSET 4.5704 10.946 -2.628
          CHANNELS 3 Zrotation Xrotation Yrotation
          JOINT LeftArm
          {
            OFFSET 10.5924 -0.5246 -2.2321
            CHANNELS 3 Zrotation Xrotation Yrotation
            JOINT LeftForeArm
            {
              OFFSET 27.8415 -0.0001 0
              CHANNELS 3 Zrotation Xrotation Yrotation
              JOINT LeftHand
              {
                OFFSET 28.3288 0 0
                CHANNELS 3 Zrotation Xrotation Yrotation
                End Site
                {
                  OFFSET 0 0 0
                }
              }
            }
          }
        }
        JOINT RightShoulder
        {
          OFFSET -4.57 10.9462 -2.628
          CHANNELS 3 Zrotation Xrotation Yrotation
          JOINT RightArm
          {
            OFFSET -10.5928 -0.5248 -2.2321
            CHANNELS 3 Zrotation Xrotation Yrotation
            JOINT RightForeArm
            {
              OFFSET -27.8415 0 0
              CHANNELS 3 Zrotation Xrotation Yrotation
              JOINT RightHand
              {
                OFFSET -28.3288 0 0.0001
                CHANNELS 3 Zrotation Xrotation Yrotation
                End Site
                {
                  OFFSET 0 0 0
                }
              }
            }
          }
        }
      }
    }
  }
  JOINT LeftUpLeg
  {
    OFFSET 8.2078 -6.7517 -1.5996
    CHANNELS 3 Zrotation Xrotation Yrotation
    JOINT LeftLeg
    {
      OFFSET 0 -44.3705 0.2846
      CHANNELS 3 Zrotation Xrotation Yrotation
      JOINT LeftFoot
      {
        OFFSET 0 -44.4279 -2.9822
        CHANNELS 3 Zrotation Xrotation Yrotation
        JOINT LeftToeBase
        {
          OFFSET 0 -8.7287 10.7106
          CHANNELS 3 Zrotation Xrotation Yrotation
          End Site
          {
            OFFSET 0 0 0
          }
        }
      }
    }
  }
  JOINT RightUpLeg
  {
    OFFSET -8.2078 -6.7517 -1.5996
    CHANNELS 3 Zrotation Xrotation Yrotation
    JOINT RightLeg
    {
      OFFSET 0 -44.3705 0.2862
      CHANNELS 3 Zrotation Xrotation Yrotation
      JOINT RightFoot
      {
        OFFSET 0 -44.4277 -2.9838
        CHANNELS 3 Zrotation Xrotation Yrotation
        JOINT RightToeBase
        {
          OFFSET 0 -8.7287 10.7106
          CHANNELS 3 Zrotation Xrotation Yrotation
          End Site
          {
            OFFSET 0 0 0
          }
        }
      }
    }
  }
}
MOTION
Frames:	19
Frame Time:	0.0333333
0.35032 94.9194 1.91514 -3.96435 8.11386 -5.20426 1.76116 13.5093 13.9018 1.34884 -3.37381 1.85696 1.22219 -3.33341 1.85248 -3.06468 4.51123 -2.24543 -0.298329 -19.7689 -6.7646 -4.0438 3.22367 -8.16307 -74.1596 20.6035 59.6593 -0.000212162 1.44089e-05 -72.4006 -1.786 -9.48196 3.66149 4.118 1.75228 4.67616 51.1594 -1.22818 16.0152 -0.000106839 1.30007e-06 92.4416 -21.2425 -14.4794 0.513128 14.1433 -45.5586 9.84615 -177.364 55.1846 -174.947 4.97159 1.37102 2.70258 4.73789e-06 2.69634e-05 1.47945e-06 6.85721 -1.13459 -5.19338 -4.67803 32.8242 11.0638 -8.19344 -11.9344 6.38252 -1.51155e-06 -31.2723 3.85556e-06 
0.109076 96.6463 23.4396 -2.27201 8.42988 -4.53088 -0.195303 8.75525 15.8717 1.20049 -1.99141 2.03704 1.0725 -2.0244 2.02899 -2.82982 5.90402 -2.83115 -0.352357 -17.8446 -10.0955 -3.08826 2.98573 -7.96156 -72.7164 21.0888 67.2291 -0.000188479 2.86095e-05 -81.5238 -3.37237 -13.9471 7.69201 3.19186 1.52951 4.12035 48.169 -0.594077 14.1718 1.11978e-06 -5.73751e-06 112.087 -18.9165 2.18621 -16.3811 12.4472 -57.8761 5.1512 -155.484 77.6585 162.771 10.7621 7.67924 -1.1507 3.02458e-06 0.0148715 1.32284e-07 5.20881 17.4868 -5.18668 -4.55693 12.6789 11.0378 3.46313 20.1091 2.38791 -1.64658 -35.722 -0.94221 
-0.245031 98.8683 43.4693 -1.09478 9.9359 -3.63203 -0.745611 4.04048 16.6615 0.560556 -0.524719 2.15433 0.493601 -0.601544 2.15648 -2.59937 5.3524 -3.28877 -0.491174 -16.255 -12.301 -2.52747 2.86297 -7.88709 -70.9533 18.6335 67.3619 -0.00018437 -4.00734e-09 -82.4169 -1.27265 -17.0576 8.20251 3.03124 1.45284 3.86479 49.1539 2.53293 10.9887 1.04777e-15 -3.68862e-15 121.715 -13.9158 12.14 -22.2216 8.89133 -58.469 -0.707948 -29.1796 71.866 37.7174 8.63767 1.12903 -0.203882 1.0485e-05 -0.151217 5.93903e-06 5.30229 18.5454 -6.59525 -9.10939 23.6221 9.17754 14.6033 30.0661 -4.84587 2.55583e-06 2.18407 -3.68711e-06 
-0.523256 100.15 63.009 -1.35239 10.3496 -2.90435 0.255155 2.85465 16.7482 -0.178566 0.0591445 2.20503 -0.172398 0.0678267 2.19727 -2.8088 3.73706 -3.48555 -0.288775 -16.0748 -12.9931 -3.77347 3.25957 -8.44405 -68.7391 13.9153 60.4337 -0.000200643 5.56306e-06 -77.6709 4.73521 -17.9368 3.9102 3.11491 1.5348 4.21363 54.3802 7.69679 6.85565 -9.20699e-16 3.4746e-15 119.682 -15.1907 12.7756 -18.7912 6.27615 -52.7277 -3.73835 -11.2396 44.9379 16.953 1.95164 -5.18567 0.0460643 -3.72349e-07 -0.307454 -1.00583e-06 4.20587 17.386 -7.67461 -11.5491 42.4183 17.3933 13.8936 26.8697 -2.60923 -1.5486e-07 -0.477402 -2.11155e-06 
-0.683837 99.9383 81.6548 -1.09239 8.48373 -0.806961 -0.708132 5.90291 14.053 0.051136 -0.199475 1.85003 0.0623236 -0.14299 1.83088 -3.90346 2.66677 -3.28198 0.158513 -17.1049 -12.1582 -6.65497 4.21915 -9.59263 -67.1976 8.72766 50.1499 -0.000207654 -1.81515e-05 -76.2534 11.3112 -23.5703 0.26655 3.11181 1.60835 4.55774 61.2088 13.2568 -0.8159 2.54039e-06 -1.21901e-05 113.544 -18.017 10.6951 -11.3013 4.03247 -44.8896 -1.98927 -7.2725 24.3127 6.93998 -1.95609 -8.87727 -0.0450493 -1.52351e-06 -0.279725 -1.30936e-06 6.05836 12.8491 -6.09145 -21.5046 68.4164 21.3626 14.6046 26.8815 -4.23852 6.86007e-07 0.132217 1.40255e-06 
-0.507634 97.8971 100.392 0.277814 6.67785 3.16991 -3.71328 10.1373 8.70638 1.43798 -1.1814 1.04279 1.36763 -1.26289 1.0497 -5.15269 2.74694 -2.71588 0.64643 -19.1681 -10.1783 -8.93367 5.21806 -10.8377 -66.8119 6.24195 38.9953 -0.000166053 9.79384e-06 -81.8686 16.1217 -26.3021 5.2509 3.42634 1.74193 5.06224 67.1261 16.2227 -12.5159 -1.48484e-05 -3.51493e-06 103.318 -19.3352 12.4156 -1.895 -1.58376 -39.4478 0.356115 -6.38575 19.0549 6.91088 -3.73859 -4.29843 0.13923 3.94979e-06 -1.96194 1.49839e-06 3.92276 6.54659 -5.11685 -172.602 83.4836 167.573 7.23383 23.1687 -1.85696 -2.12e-06 0.0782533 1.20127e-06 
-0.326402 95.7482 119.45 2.44631 6.93995 6.64942 -6.78641 13.5902 2.75139 3.00826 -2.82117 0.213321 2.95454 -2.89705 0.222901 -5.51297 3.19528 -1.9146 1.15718 -21.605 -7.39815 -9.785 5.71858 -11.522 -64.9972 6.76376 24.8585 -0.000183262 -5.34684e-06 -93.3481 15.43 -17.3841 11.743 3.8734 1.95798 5.90371 70.0012 14.2303 -24.686 0.000437558 4.19925e-06 89.8992 -18.9603 16.8015 1.6089 -7.45321 -38.9875 -1.34701 -6.02602 35.1006 4.88515 8.3105 -3.00591 0.0766577 6.34393e-08 -1.55639 -0 -1.63744 -3.40551 -7.04584 174.557 58.9258 179.255 -1.76589 11.181 0.406415 7.88163e-07 0.183545 -2.86258e-06 
0.22252 94.3035 135.986 5.41351 9.00038 7.58847 -9.37852 15.1037 -2.21171 3.99512 -3.49948 -0.427986 4.07177 -3.42447 -0.437948 -4.5826 2.83326 -1.06106 1.32079 -23.1552 -3.73679 -8.74949 4.90609 -10.0753 -61.4235 6.01346 4.54653 -0.000212043 1.37993e-05 -103.067 8.60365 -1.61436 11.2014 4.09313 1.93955 5.56267 69.4029 10.0918 -32.991 -3.48017e-05 -1.12635e-06 79.9286 -13.4768 20.4529 -9.29472 -9.56722 -34.8216 -4.21399 -10.7089 45.067 8.06296 8.47552 -18.8507 1.16205 2.64581e-06 -0.0019285 -2.12109e-06 -11.5574 -24.3613 -8.42835 176.266 38.5906 179.116 -11.1246 8.3571 1.52744 9.69049e-07 0.455085 -4.90207e-06 
0.178399 92.9082 154.527 7.16318 11.2348 7.38716 -10.743 13.0296 -7.18256 4.45311 -1.86752 -1.12033 4.48108 -1.47574 -1.11825 -2.96188 1.56036 -0.177696 0.875948 -22.7998 0.892686 -6.34177 3.27316 -6.90542 -59.2135 0.179749 -18.0185 -0.000213623 5.01745e-12 -103.773 4.8974 6.81059 3.50087 2.26777 1.27225 2.89803 68.1826 10.8666 -39.6407 -2.38921e-05 -8.28681e-06 79.2556 -7.17084 17.3474 -24.0682 -5.34065 -22.828 4.63696 -12.4311 44.3249 -0.95654 12.5474 -30.5165 0.50236 4.41637e-06 -4.41901 2.60573e-06 -17.244 -50.0738 -7.36976 177.489 34.6671 178.624 -8.21383 1.71934 0.63373 2.11202e-07 -0.179655 1.67268e-06 
0.317161 93.2168 176.675 5.01928 12.2843 7.61511 -8.72645 7.41116 -12.4542 4.12958 0.446716 -1.84927 4.05521 1.96608 -1.8705 -1.65954 0.304755 0.693092 0.152339 -20.6017 5.71986 -3.32515 1.93863 -3.88345 -58.1691 -8.30581 -34.2585 -0.000168336 -5.44127e-06 -100.271 4.26973 1.46265 -2.40137 -0.573529 0.640427 0.856615 69.6059 17.53 -50.0676 6.11646e-05 -3.40733e-05 86.2061 -10.2773 8.42446 -25.2084 -0.595932 -7.23785 8.89097 -8.99314 38.2719 -5.36108 10.9637 -21.666 -6.18006 -0.293587 -14.4543 -0.0554576 -15.127 -58.9543 -3.53859 174.733 48.5229 177.91 -5.4002 -6.08216 -0.0546722 -4.73895e-06 -0.111476 -6.9272e-07 
0.850934 94.3838 200.538 2.66966 12.5286 8.17199 -6.05964 1.30476 -16.5742 3.19352 1.81735 -2.33865 3.10426 4.85474 -2.41237 -1.18406 -0.292551 1.34952 -0.37966 -17.6425 9.16281 -1.32423 1.20136 -1.74224 -55.0404 -13.993 -41.2544 -0.00021404 -3.54319e-06 -103.427 5.83817 -9.83391 3.22144 -2.78914 0.486281 0.650075 72.7345 21.8547 -62.2341 4.60879e-05 -8.71568e-06 94.0943 -15.8873 -2.58118 -17.4986 1.75998 12.7745 14.1385 -6.27656 21.8582 -5.73703 5.74069 0.474829 -0.950248 -0.605733 -13.2167 -0.134923 -14.8151 -64.2332 -4.29902 168.968 65.3647 -179.116 -0.164311 -2.64984 -1.70019 -6.39354e-06 -0.0397834 1.05119e-06 
1.36335 97.1095 221.653 1.32517 12.6348 8.54956 -4.03428 -2.12109 -18.3538 2.73957 2.42291 -2.48404 2.53863 6.36499 -2.60583 -1.23554 -0.500086 1.67244 -0.712514 -15.5841 10.4146 -1.33945 1.10115 -1.30801 -50.0887 -13.5264 -41.474 -0.000213623 -5.52522e-13 -112.28 12.4789 -16.2042 17.4906 -4.31577 0.430572 0.563013 73.7885 17.9642 -68.4534 -5.40599e-07 8.10553e-06 97.6315 -18.1156 -9.81051 -14.7768 1.89811 21.2215 12.8492 -1.0024 22.5326 0.60135 9.2234 19.467 -2.19259 -1.19571e-06 0.292849 -6.66841e-07 -15.6297 -65.7346 -5.74517 107.059 83.5771 -115.323 0.721702 0.193359 -2.93355 -3.58268e-06 0.0204105 -3.27006e-06 
1.32535 99.2386 241.691 1.1643 12.6091 8.13566 -3.60563 -2.45839 -18.0147 3.08861 2.6117 -2.39614 2.84501 6.74369 -2.58794 -1.24491 -0.826769 1.69686 -1.25163 -15.6876 10.0988 -2.07231 1.43361 -2.43859 -47.4834 -6.07575 -35.3537 -0.000228882 -6.64251e-13 -117.639 15.8354 -14.465 25.5586 -3.89352 0.48395 0.860173 71.8068 9.35799 -65.8771 5.75662e-07 -9.35473e-06 97.043 -19.5774 -9.93658 -18.6454 1.12517 21.7473 5.22715 1.64972 39.6694 -7.91147 3.85161 22.9862 -0.763106 -1.25398e-06 -0.361658 2.57945e-06 -10.251 -61.4408 2.06066 19.0239 63.082 -25.1006 5.93709 0.379068 -6.44094 -4.58223e-08 -0.767897 7.55848e-07 
1.35652 100.766 260.383 0.965504 11.6654 7.73857 -3.23595 -0.736815 -16.5246 3.68935 2.31821 -2.24052 3.52674 6.02805 -2.4429 -1.07497 -1.33947 1.49794 -2.10164 -17.4734 8.82797 -3.08841 1.99371 -4.15666 -51.0836 5.28149 -22.1597 -0.000227361 6.63987e-06 -115.795 11.4378 -9.2874 19.9123 -1.8936 0.700651 1.77847 69.5409 2.36959 -57.6839 4.51553e-05 1.4426e-05 94.9305 -20.22 -4.73436 -19.321 1.05249 17.1325 3.71694 5.7782 65.0225 -14.6117 0.229014 27.5011 -1.451 1.27944e-06 0.0503186 -9.96598e-07 -5.18329 -50.2573 5.74904 4.4026 30.2791 -8.79731 8.8013 -1.8015 -3.71801 2.36499e-06 -0.868228 4.53472e-07 
1.33637 100.289 279.824 1.03288 10.0919 6.79572 -2.34537 2.68316 -13.3501 3.82687 1.39408 -1.88247 3.66525 3.97896 -1.98981 -1.04749 -1.78903 1.11272 -2.77209 -19.0682 6.64582 -4.31483 2.57048 -5.6947 -59.6904 14.0709 -4.87833 -0.000213623 2.59684e-14 -108.153 4.59936 -4.67659 7.52437 0.51538 0.977773 2.55339 68.5408 -0.67241 -47.5299 0.000244037 4.69894e-06 92.5214 -22.1277 1.49716 -9.43083 0.424308 14.4543 3.52094 45.5234 86.3655 -49.9913 2.41176 23.0105 -0.401902 1.17885e-06 -0.0234245 -5.81498e-07 -0.832995 -43.3604 9.4181 -2.5947 8.25401 -9.16152 9.9796 17.3243 -8.17551 -4.98718e-06 -16.503 -2.36844e-06 
1.3477 98.6961 298.186 1.24351 9.20438 4.15195 -0.964908 7.45675 -7.84435 2.89997 0.03274 -1.12236 2.87096 1.13843 -1.13678 -1.43383 -1.95194 0.556668 -2.86262 -19.4014 3.94625 -5.21823 3.08427 -6.96024 -67.191 16.2032 11.4075 -0.000212967 1.41314e-05 -95.3139 -0.490179 -3.50577 -2.82928 3.87347 1.43571 3.30364 67.0825 -0.78952 -35.8032 0.00014948 -3.43629e-06 89.1335 -26.7184 2.44562 9.25774 -1.72148 8.83686 0.852271 -175.721 69.9936 171.49 5.25414 11.3426 -0.752107 -1.44472e-07 -0.0510277 1.42776e-06 -0.201402 -36.3372 4.17502 -1.56038 0.999851 -9.85767 8.0779 34.9292 -6.3917 4.21513e-06 -21.6553 8.15419e-07 
1.04418 96.7983 317.421 0.413204 9.43768 -0.285473 0.622333 12.226 -0.790718 1.60767 -1.37242 -0.137695 1.78833 -1.30251 -0.119052 -2.14392 -1.59644 -0.124471 -2.392 -19.2701 1.48362 -6.19835 3.76714 -8.46671 -70.6763 13.9663 24.2721 -0.000182776 -1.13095e-05 -79.1987 -1.80807 -4.75266 -6.81588 6.65391 1.96194 4.36373 63.834 0.370845 -20.1271 -2.93842e-05 -1.27873e-05 83.638 -25.1505 -5.75238 26.8895 2.7417 2.0452 6.35347 -175.295 50.3288 173.018 10.4427 -8.09994 0.204215 -2.48839e-06 -0.00548315 -1.37989e-06 3.31931 -41.2962 1.45787 1.24136 34.4628 0.188498 -3.93643 -2.49704 0.192935 2.31017e-07 -2.4465 1.56191e-07 
0.538198 95.6789 336.416 -1.85054 9.40752 -4.19896 2.22154 15.2962 5.70947 1.05669 -2.69917 0.775084 1.19939 -2.8402 0.803778 -2.83337 -0.425808 -0.853708 -1.51054 -19.7238 -0.607115 -6.56451 4.10338 -9.23758 -72.7656 13.3604 35.2378 -0.000204005 7.24045e-07 -65.5188 0.226861 -5.59551 -5.35743 6.48662 2.08022 4.95222 59.8807 1.08041 -1.61914 -2.96201e-05 -8.68611e-06 76.7256 -15.1258 -17.343 34.4315 8.71508 -11.9216 12.665 -178.826 39.826 -172.816 -2.4868 -12.9329 -0.734421 -3.10119e-06 0.270456 3.74281e-06 8.01037 -34.7814 2.00433 -1.4725 46.4625 8.1213 -6.35396 -16.0698 -0.985638 2.98853e-07 -6.79183 -2.41494e-06 
0.45915 94.7896 354.905 -3.96501 8.65973 -5.35622 2.97792 15.7916 10.4312 1.16776 -3.63836 1.4473 1.14178 -3.62015 1.46476 -3.14114 1.82348 -1.57168 -0.671755 -20.464 -3.25414 -5.26598 3.61953 -8.60613 -74.4017 17.1494 47.3361 -0.000204332 6.65522e-06 -63.403 0.678264 -6.24239 -1.41852 5.30839 1.95171 4.98417 55.8716 0.0234973 11.8023 1.0082e-05 -4.3828e-12 76.8507 -14.4289 -23.3444 22.848 13.9689 -31.5825 14.1825 178.053 37.8089 -169.598 -0.17018 -6.7415 3.0552 -7.07622e-06 -0.109104 4.30807e-06 7.9202 -22.4616 -2.40805 -3.80536 48.1085 9.95387 -7.83972 -19.9984 4.57375 3.24073e-07 -16.5074 1.36085e-06 
